<svg width="24" height="24" viewBox="0 0 24 24" fill="none" xmlns="http://www.w3.org/2000/svg">
<path fill-rule="evenodd" clip-rule="evenodd" d="M9.87887 12L0.438777 2.55991C-0.146259 1.97487 -0.146259 1.02381 0.438777 0.438777C1.02381 -0.146259 1.97487 -0.146259 2.55991 0.438777L12 9.87887L21.4401 0.438777C22.0251 -0.146259 22.9762 -0.146259 23.5612 0.438777C24.1463 1.02381 24.1463 1.97487 23.5612 2.55991L14.1211 12L23.5612 21.4401C24.1463 22.0251 24.1463 22.9762 23.5612 23.5612C22.9762 24.1463 22.0251 24.1463 21.4401 23.5612L12 14.1211L2.55991 23.5612C1.97487 24.1463 1.02381 24.1463 0.438777 23.5612C-0.146259 22.9762 -0.146259 22.0251 0.438777 21.4401L9.87887 12Z" fill="#E60019"/>
</svg>
