<svg width="55" height="55" viewBox="0 0 55 55" fill="none" xmlns="http://www.w3.org/2000/svg">
<path d="M1.02753 2.0551C1.59503 2.0551 2.05506 1.59505 2.05506 1.02755C2.05506 0.46005 1.59503 0 1.02753 0C0.460028 0 0 0.46005 0 1.02755C0 1.59505 0.460028 2.0551 1.02753 2.0551Z" fill="black"/>
<path d="M9.8377 2.0551C10.4052 2.0551 10.8652 1.59505 10.8652 1.02755C10.8652 0.46005 10.4052 0 9.8377 0C9.2702 0 8.81012 0.46005 8.81012 1.02755C8.81012 1.59505 9.2702 2.0551 9.8377 2.0551Z" fill="black"/>
<path d="M18.6478 2.0551C19.2153 2.0551 19.6753 1.59505 19.6753 1.02755C19.6753 0.46005 19.2153 0 18.6478 0C18.0803 0 17.6202 0.46005 17.6202 1.02755C17.6202 1.59505 18.0803 2.0551 18.6478 2.0551Z" fill="black"/>
<path d="M28.4856 1.02755C28.4856 1.23078 28.4252 1.42945 28.3123 1.59843C28.1994 1.76741 28.039 1.89911 27.8512 1.97688C27.6635 2.05466 27.4569 2.075 27.2575 2.03536C27.0582 1.99571 26.8751 1.89784 26.7314 1.75414C26.5877 1.61043 26.4898 1.42734 26.4502 1.22802C26.4105 1.02869 26.4309 0.822085 26.5086 0.634325C26.5864 0.446564 26.7181 0.286083 26.8871 0.173174C27.0561 0.0602653 27.2547 0 27.458 0C27.7305 0 27.9919 0.108259 28.1846 0.300962C28.3773 0.493665 28.4856 0.755027 28.4856 1.02755Z" fill="black"/>
<path d="M36.2681 2.0551C36.8356 2.0551 37.2956 1.59505 37.2956 1.02755C37.2956 0.46005 36.8356 0 36.2681 0C35.7006 0 35.2405 0.46005 35.2405 1.02755C35.2405 1.59505 35.7006 2.0551 36.2681 2.0551Z" fill="black"/>
<path d="M45.0782 2.0551C45.6457 2.0551 46.1058 1.59505 46.1058 1.02755C46.1058 0.46005 45.6457 0 45.0782 0C44.5107 0 44.0507 0.46005 44.0507 1.02755C44.0507 1.59505 44.5107 2.0551 45.0782 2.0551Z" fill="black"/>
<path d="M53.8864 2.0551C54.4539 2.0551 54.914 1.59505 54.914 1.02755C54.914 0.46005 54.4539 0 53.8864 0C53.3189 0 52.8589 0.46005 52.8589 1.02755C52.8589 1.59505 53.3189 2.0551 53.8864 2.0551Z" fill="black"/>
<path d="M1.02753 10.8637C1.59503 10.8637 2.05506 10.4036 2.05506 9.83614C2.05506 9.26864 1.59503 8.80859 1.02753 8.80859C0.460028 8.80859 0 9.26864 0 9.83614C0 10.4036 0.460028 10.8637 1.02753 10.8637Z" fill="black"/>
<path d="M9.8377 10.8637C10.4052 10.8637 10.8652 10.4036 10.8652 9.83614C10.8652 9.26864 10.4052 8.80859 9.8377 8.80859C9.2702 8.80859 8.81012 9.26864 8.81012 9.83614C8.81012 10.4036 9.2702 10.8637 9.8377 10.8637Z" fill="black"/>
<path d="M18.6478 10.8637C19.2153 10.8637 19.6753 10.4036 19.6753 9.83614C19.6753 9.26864 19.2153 8.80859 18.6478 8.80859C18.0803 8.80859 17.6202 9.26864 17.6202 9.83614C17.6202 10.4036 18.0803 10.8637 18.6478 10.8637Z" fill="black"/>
<path d="M28.4856 9.83619C28.4852 10.0393 28.4246 10.2378 28.3114 10.4065C28.1983 10.5752 28.0376 10.7066 27.8498 10.7841C27.662 10.8616 27.4555 10.8816 27.2563 10.8418C27.0571 10.8019 26.8742 10.7039 26.7307 10.5601C26.5872 10.4163 26.4895 10.2332 26.45 10.0339C26.4105 9.83465 26.431 9.62815 26.5088 9.44051C26.5867 9.25286 26.7184 9.0925 26.8873 8.97968C27.0563 8.86686 27.2548 8.80664 27.458 8.80664C27.5931 8.80664 27.7269 8.83329 27.8517 8.88505C27.9764 8.93682 28.0899 9.01268 28.1853 9.10831C28.2807 9.20394 28.3564 9.31745 28.4079 9.44235C28.4594 9.56725 28.4858 9.70108 28.4856 9.83619Z" fill="black"/>
<path d="M36.2681 10.8637C36.8356 10.8637 37.2956 10.4036 37.2956 9.83614C37.2956 9.26864 36.8356 8.80859 36.2681 8.80859C35.7006 8.80859 35.2405 9.26864 35.2405 9.83614C35.2405 10.4036 35.7006 10.8637 36.2681 10.8637Z" fill="black"/>
<path d="M45.0782 10.8637C45.6457 10.8637 46.1058 10.4036 46.1058 9.83614C46.1058 9.26864 45.6457 8.80859 45.0782 8.80859C44.5107 8.80859 44.0507 9.26864 44.0507 9.83614C44.0507 10.4036 44.5107 10.8637 45.0782 10.8637Z" fill="black"/>
<path d="M53.8864 10.8637C54.4539 10.8637 54.914 10.4036 54.914 9.83614C54.914 9.26864 54.4539 8.80859 53.8864 8.80859C53.3189 8.80859 52.8589 9.26864 52.8589 9.83614C52.8589 10.4036 53.3189 10.8637 53.8864 10.8637Z" fill="black"/>
<path d="M1.02753 19.6156C1.59503 19.6156 2.05506 19.1556 2.05506 18.5881C2.05506 18.0206 1.59503 17.5605 1.02753 17.5605C0.460028 17.5605 0 18.0206 0 18.5881C0 19.1556 0.460028 19.6156 1.02753 19.6156Z" fill="black"/>
<path d="M9.8377 19.6156C10.4052 19.6156 10.8652 19.1556 10.8652 18.5881C10.8652 18.0206 10.4052 17.5605 9.8377 17.5605C9.2702 17.5605 8.81012 18.0206 8.81012 18.5881C8.81012 19.1556 9.2702 19.6156 9.8377 19.6156Z" fill="black"/>
<path d="M18.6478 19.6156C19.2153 19.6156 19.6753 19.1556 19.6753 18.5881C19.6753 18.0206 19.2153 17.5605 18.6478 17.5605C18.0803 17.5605 17.6202 18.0206 17.6202 18.5881C17.6202 19.1556 18.0803 19.6156 18.6478 19.6156Z" fill="black"/>
<path d="M28.4856 18.5881C28.4856 18.7913 28.4252 18.99 28.3123 19.159C28.1994 19.328 28.039 19.4597 27.8512 19.5374C27.6635 19.6152 27.4569 19.6355 27.2575 19.5959C27.0582 19.5563 26.8751 19.4584 26.7314 19.3147C26.5877 19.171 26.4898 18.9879 26.4502 18.7886C26.4105 18.5892 26.4309 18.3826 26.5086 18.1949C26.5864 18.0071 26.7181 17.8466 26.8871 17.7337C27.0561 17.6208 27.2547 17.5605 27.458 17.5605C27.7305 17.5605 27.9919 17.6688 28.1846 17.8615C28.3773 18.0542 28.4856 18.3156 28.4856 18.5881Z" fill="black"/>
<path d="M36.2681 19.6156C36.8356 19.6156 37.2956 19.1556 37.2956 18.5881C37.2956 18.0206 36.8356 17.5605 36.2681 17.5605C35.7006 17.5605 35.2405 18.0206 35.2405 18.5881C35.2405 19.1556 35.7006 19.6156 36.2681 19.6156Z" fill="black"/>
<path d="M45.0782 19.6156C45.6457 19.6156 46.1058 19.1556 46.1058 18.5881C46.1058 18.0206 45.6457 17.5605 45.0782 17.5605C44.5107 17.5605 44.0507 18.0206 44.0507 18.5881C44.0507 19.1556 44.5107 19.6156 45.0782 19.6156Z" fill="black"/>
<path d="M53.8864 19.6156C54.4539 19.6156 54.914 19.1556 54.914 18.5881C54.914 18.0206 54.4539 17.5605 53.8864 17.5605C53.3189 17.5605 52.8589 18.0206 52.8589 18.5881C52.8589 19.1556 53.3189 19.6156 53.8864 19.6156Z" fill="black"/>
<path d="M1.02753 28.4252C1.59503 28.4252 2.05506 27.9652 2.05506 27.3977C2.05506 26.8302 1.59503 26.3701 1.02753 26.3701C0.460028 26.3701 0 26.8302 0 27.3977C0 27.9652 0.460028 28.4252 1.02753 28.4252Z" fill="black"/>
<path d="M9.8377 28.4252C10.4052 28.4252 10.8652 27.9652 10.8652 27.3977C10.8652 26.8302 10.4052 26.3701 9.8377 26.3701C9.2702 26.3701 8.81012 26.8302 8.81012 27.3977C8.81012 27.9652 9.2702 28.4252 9.8377 28.4252Z" fill="black"/>
<path d="M18.6478 28.4252C19.2153 28.4252 19.6753 27.9652 19.6753 27.3977C19.6753 26.8302 19.2153 26.3701 18.6478 26.3701C18.0803 26.3701 17.6202 26.8302 17.6202 27.3977C17.6202 27.9652 18.0803 28.4252 18.6478 28.4252Z" fill="black"/>
<path d="M28.4856 27.3977C28.4852 27.6009 28.4246 27.7993 28.3114 27.968C28.1983 28.1368 28.0376 28.2682 27.8498 28.3456C27.662 28.4231 27.4555 28.4431 27.2563 28.4033C27.0571 28.3634 26.8742 28.2654 26.7307 28.1216C26.5872 27.9778 26.4895 27.7947 26.45 27.5954C26.4105 27.3962 26.431 27.1897 26.5088 27.002C26.5867 26.8144 26.7184 26.654 26.8873 26.5412C27.0563 26.4284 27.2548 26.3682 27.458 26.3682C27.5931 26.3682 27.7269 26.3948 27.8517 26.4466C27.9764 26.4983 28.0899 26.5742 28.1853 26.6698C28.2807 26.7655 28.3564 26.879 28.4079 27.0039C28.4594 27.1288 28.4858 27.2626 28.4856 27.3977Z" fill="black"/>
<path d="M36.2681 28.4252C36.8356 28.4252 37.2956 27.9652 37.2956 27.3977C37.2956 26.8302 36.8356 26.3701 36.2681 26.3701C35.7006 26.3701 35.2405 26.8302 35.2405 27.3977C35.2405 27.9652 35.7006 28.4252 36.2681 28.4252Z" fill="black"/>
<path d="M45.0782 28.4252C45.6457 28.4252 46.1058 27.9652 46.1058 27.3977C46.1058 26.8302 45.6457 26.3701 45.0782 26.3701C44.5107 26.3701 44.0507 26.8302 44.0507 27.3977C44.0507 27.9652 44.5107 28.4252 45.0782 28.4252Z" fill="black"/>
<path d="M53.8864 28.4252C54.4539 28.4252 54.914 27.9652 54.914 27.3977C54.914 26.8302 54.4539 26.3701 53.8864 26.3701C53.3189 26.3701 52.8589 26.8302 52.8589 27.3977C52.8589 27.9652 53.3189 28.4252 53.8864 28.4252Z" fill="black"/>
<path d="M1.02753 37.2319C1.59503 37.2319 2.05506 36.7718 2.05506 36.2043C2.05506 35.6368 1.59503 35.1768 1.02753 35.1768C0.460028 35.1768 0 35.6368 0 36.2043C0 36.7718 0.460028 37.2319 1.02753 37.2319Z" fill="black"/>
<path d="M9.8377 37.2319C10.4052 37.2319 10.8652 36.7718 10.8652 36.2043C10.8652 35.6368 10.4052 35.1768 9.8377 35.1768C9.2702 35.1768 8.81012 35.6368 8.81012 36.2043C8.81012 36.7718 9.2702 37.2319 9.8377 37.2319Z" fill="black"/>
<path d="M18.6478 37.2319C19.2153 37.2319 19.6753 36.7718 19.6753 36.2043C19.6753 35.6368 19.2153 35.1768 18.6478 35.1768C18.0803 35.1768 17.6202 35.6368 17.6202 36.2043C17.6202 36.7718 18.0803 37.2319 18.6478 37.2319Z" fill="black"/>
<path d="M28.4856 36.2043C28.4856 36.4075 28.4252 36.6062 28.3123 36.7752C28.1994 36.9442 28.039 37.0759 27.8512 37.1536C27.6635 37.2314 27.4569 37.2518 27.2575 37.2121C27.0582 37.1725 26.8751 37.0746 26.7314 36.9309C26.5877 36.7872 26.4898 36.6041 26.4502 36.4048C26.4105 36.2054 26.4309 35.9988 26.5086 35.8111C26.5864 35.6233 26.7181 35.4628 26.8871 35.3499C27.0561 35.237 27.2547 35.1768 27.458 35.1768C27.7303 35.1773 27.9914 35.2857 28.184 35.4783C28.3766 35.6709 28.485 35.9319 28.4856 36.2043Z" fill="black"/>
<path d="M36.2681 37.2319C36.8356 37.2319 37.2956 36.7718 37.2956 36.2043C37.2956 35.6368 36.8356 35.1768 36.2681 35.1768C35.7006 35.1768 35.2405 35.6368 35.2405 36.2043C35.2405 36.7718 35.7006 37.2319 36.2681 37.2319Z" fill="black"/>
<path d="M45.0782 37.2319C45.6457 37.2319 46.1058 36.7718 46.1058 36.2043C46.1058 35.6368 45.6457 35.1768 45.0782 35.1768C44.5107 35.1768 44.0507 35.6368 44.0507 36.2043C44.0507 36.7718 44.5107 37.2319 45.0782 37.2319Z" fill="black"/>
<path d="M53.8864 37.2319C54.4539 37.2319 54.914 36.7718 54.914 36.2043C54.914 35.6368 54.4539 35.1768 53.8864 35.1768C53.3189 35.1768 52.8589 35.6368 52.8589 36.2043C52.8589 36.7718 53.3189 37.2319 53.8864 37.2319Z" fill="black"/>
<path d="M1.02753 45.9858C1.59503 45.9858 2.05506 45.5257 2.05506 44.9582C2.05506 44.3907 1.59503 43.9307 1.02753 43.9307C0.460028 43.9307 0 44.3907 0 44.9582C0 45.5257 0.460028 45.9858 1.02753 45.9858Z" fill="black"/>
<path d="M9.8377 45.9858C10.4052 45.9858 10.8652 45.5257 10.8652 44.9582C10.8652 44.3907 10.4052 43.9307 9.8377 43.9307C9.2702 43.9307 8.81012 44.3907 8.81012 44.9582C8.81012 45.5257 9.2702 45.9858 9.8377 45.9858Z" fill="black"/>
<path d="M18.6478 45.9858C19.2153 45.9858 19.6753 45.5257 19.6753 44.9582C19.6753 44.3907 19.2153 43.9307 18.6478 43.9307C18.0803 43.9307 17.6202 44.3907 17.6202 44.9582C17.6202 45.5257 18.0803 45.9858 18.6478 45.9858Z" fill="black"/>
<path d="M28.4856 44.9582C28.4856 45.1614 28.4252 45.3601 28.3123 45.5291C28.1994 45.6981 28.039 45.8298 27.8512 45.9076C27.6635 45.9853 27.4569 46.0057 27.2575 45.966C27.0582 45.9264 26.8751 45.8285 26.7314 45.6848C26.5877 45.5411 26.4898 45.358 26.4502 45.1587C26.4105 44.9594 26.4309 44.7527 26.5086 44.565C26.5864 44.3772 26.7181 44.2167 26.8871 44.1038C27.0561 43.9909 27.2547 43.9307 27.458 43.9307C27.7305 43.9307 27.9919 44.0389 28.1846 44.2316C28.3773 44.4243 28.4856 44.6857 28.4856 44.9582Z" fill="black"/>
<path d="M36.2681 45.9858C36.8356 45.9858 37.2956 45.5257 37.2956 44.9582C37.2956 44.3907 36.8356 43.9307 36.2681 43.9307C35.7006 43.9307 35.2405 44.3907 35.2405 44.9582C35.2405 45.5257 35.7006 45.9858 36.2681 45.9858Z" fill="black"/>
<path d="M45.0782 45.9858C45.6457 45.9858 46.1058 45.5257 46.1058 44.9582C46.1058 44.3907 45.6457 43.9307 45.0782 43.9307C44.5107 43.9307 44.0507 44.3907 44.0507 44.9582C44.0507 45.5257 44.5107 45.9858 45.0782 45.9858Z" fill="black"/>
<path d="M53.8864 45.9858C54.4539 45.9858 54.914 45.5257 54.914 44.9582C54.914 44.3907 54.4539 43.9307 53.8864 43.9307C53.3189 43.9307 52.8589 44.3907 52.8589 44.9582C52.8589 45.5257 53.3189 45.9858 53.8864 45.9858Z" fill="black"/>
<path d="M1.02753 54.85C1.59503 54.85 2.05506 54.39 2.05506 53.8225C2.05506 53.255 1.59503 52.7949 1.02753 52.7949C0.460028 52.7949 0 53.255 0 53.8225C0 54.39 0.460028 54.85 1.02753 54.85Z" fill="black"/>
<path d="M9.8377 54.85C10.4052 54.85 10.8652 54.39 10.8652 53.8225C10.8652 53.255 10.4052 52.7949 9.8377 52.7949C9.2702 52.7949 8.81012 53.255 8.81012 53.8225C8.81012 54.39 9.2702 54.85 9.8377 54.85Z" fill="black"/>
<path d="M18.6478 54.85C19.2153 54.85 19.6753 54.39 19.6753 53.8225C19.6753 53.255 19.2153 52.7949 18.6478 52.7949C18.0803 52.7949 17.6202 53.255 17.6202 53.8225C17.6202 54.39 18.0803 54.85 18.6478 54.85Z" fill="black"/>
<path d="M28.4856 53.8225C28.4856 54.0257 28.4252 54.2244 28.3123 54.3933C28.1994 54.5623 28.039 54.694 27.8512 54.7718C27.6635 54.8496 27.4569 54.8699 27.2575 54.8303C27.0582 54.7906 26.8751 54.6928 26.7314 54.5491C26.5877 54.4054 26.4898 54.2223 26.4502 54.0229C26.4105 53.8236 26.4309 53.617 26.5086 53.4293C26.5864 53.2415 26.7181 53.081 26.8871 52.9681C27.0561 52.8552 27.2547 52.7949 27.458 52.7949C27.7305 52.7949 27.9919 52.9032 28.1846 53.0959C28.3773 53.2886 28.4856 53.55 28.4856 53.8225Z" fill="black"/>
<path d="M36.2681 54.85C36.8356 54.85 37.2956 54.39 37.2956 53.8225C37.2956 53.255 36.8356 52.7949 36.2681 52.7949C35.7006 52.7949 35.2405 53.255 35.2405 53.8225C35.2405 54.39 35.7006 54.85 36.2681 54.85Z" fill="black"/>
<path d="M45.0782 54.85C45.6457 54.85 46.1058 54.39 46.1058 53.8225C46.1058 53.255 45.6457 52.7949 45.0782 52.7949C44.5107 52.7949 44.0507 53.255 44.0507 53.8225C44.0507 54.39 44.5107 54.85 45.0782 54.85Z" fill="black"/>
<path d="M53.8864 54.85C54.4539 54.85 54.914 54.39 54.914 53.8225C54.914 53.255 54.4539 52.7949 53.8864 52.7949C53.3189 52.7949 52.8589 53.255 52.8589 53.8225C52.8589 54.39 53.3189 54.85 53.8864 54.85Z" fill="black"/>
</svg>
