<svg width="41" height="41" viewBox="0 0 41 41" fill="none" xmlns="http://www.w3.org/2000/svg">
<circle cx="20.5" cy="20.5" r="20.5" fill="#EAF1FA"/>
<g clip-path="url(#clip0_170_1744)">
<path d="M32.8003 20.259C32.8003 13.5991 27.4014 8.2002 20.7414 8.2002C14.0815 8.2002 8.68262 13.5991 8.68262 20.259C8.68262 26.2778 13.0923 31.2667 18.8573 32.1713V23.7448H15.7954V20.259H18.8573V17.6023C18.8573 14.5801 20.6576 12.9107 23.412 12.9107C24.731 12.9107 26.1114 13.1462 26.1114 13.1462V16.1138H24.5908C23.0929 16.1138 22.6256 17.0434 22.6256 17.998V20.259H25.9701L25.4354 23.7448H22.6256V32.1713C28.3906 31.2667 32.8003 26.2778 32.8003 20.259Z" fill="#1877F2"/>
<path d="M25.4359 23.7452L25.9705 20.2595H22.6261V17.9984C22.6261 17.0448 23.0934 16.1143 24.5913 16.1143H26.1118V13.1467C26.1118 13.1467 24.7319 12.9111 23.4125 12.9111C20.6581 12.9111 18.8577 14.5805 18.8577 17.6028V20.2595H15.7959V23.7452H18.8577V32.1718C20.1062 32.3671 21.3776 32.3671 22.6261 32.1718V23.7452H25.4359Z" fill="white"/>
</g>
<defs>
<clipPath id="clip0_170_1744">
<rect width="24.1176" height="24.1176" fill="white" transform="translate(8.68262 8.2002)"/>
</clipPath>
</defs>
</svg>
