<svg width="20" height="20" viewBox="0 0 20 20" fill="none" xmlns="http://www.w3.org/2000/svg">
<path fill-rule="evenodd" clip-rule="evenodd" d="M2.49515 17.5C2.49765 17.5 2.50141 2.5 2.50141 2.5C2.50141 2.505 8.75492 2.5 8.75492 2.5C9.44531 2.5 10.0056 1.94 10.0056 1.25C10.0056 0.56 9.44531 0 8.75492 0H2.49515C1.12563 0 0 1.125 0 2.5V17.5C0 18.8825 1.11313 20 2.49515 20H8.75492C9.44531 20 10.0056 19.44 10.0056 18.75C10.0056 18.06 9.44531 17.5 8.75492 17.5H2.49515ZM15.9427 11.25L12.841 14.1175C12.3469 14.605 12.3469 15.3963 12.841 15.885C13.3363 16.3725 14.138 16.3725 14.632 15.885L19.4447 11.3262C19.8024 10.9725 20 10.5038 20 10.0013C20 9.50125 19.8024 9.02875 19.4447 8.67625L14.6295 4.1175C14.1367 3.63 13.335 3.63 12.841 4.1175C12.3457 4.605 12.3457 5.39625 12.841 5.885L15.939 8.75H8.75492C8.06454 8.75 7.50422 9.30875 7.50422 10C7.50422 10.6875 8.06454 11.25 8.75492 11.25H15.9427Z" fill="#777E90"/>
</svg>
