<svg width="37" height="34" viewBox="0 0 37 34" fill="none" xmlns="http://www.w3.org/2000/svg">
<rect x="6.61133" width="30.2223" height="28.3334" rx="5" fill="#6EA5DE"/>
<path fill-rule="evenodd" clip-rule="evenodd" d="M22.1924 25.5376C21.6431 26.1208 20.9068 26.4441 20.1276 26.4441H20.1257C19.3426 26.4441 18.6121 26.1208 18.0609 25.5376L10.9587 17.6943C10.199 16.886 10.199 15.5805 10.9587 14.7722C11.7204 13.9619 12.9534 13.9619 13.7131 14.7722L20.1276 21.885L30.2223 11.073V10.666C30.2223 7.90459 27.9838 5.66602 25.2223 5.66602H5C2.23858 5.66602 0 7.90459 0 10.666V28.9995C0 31.7609 2.23857 33.9995 5 33.9995H25.2223C27.9838 33.9995 30.2223 31.7609 30.2223 28.9995V16.9406L22.1924 25.5376Z" fill="white"/>
</svg>
