<svg width="18" height="18" viewBox="0 0 18 18" fill="none" xmlns="http://www.w3.org/2000/svg">
<path fill-rule="evenodd" clip-rule="evenodd" d="M10.1854 0C9.23876 0 8.33087 0.376059 7.66148 1.04545L3.14568 5.56125C2.97144 5.73549 2.97144 6.01799 3.14568 6.19223L11.8078 14.8543C11.982 15.0286 12.2645 15.0286 12.4388 14.8543L16.9546 10.3385C17.6239 9.66913 18 8.76124 18 7.81459V2.67703C18 1.19855 16.8015 0 15.323 0H10.1854ZM13.5383 6.24641C13.5383 7.23207 12.7393 8.0311 11.7536 8.0311C10.768 8.0311 9.96895 7.23207 9.96895 6.24641C9.96895 5.26076 10.768 4.46172 11.7536 4.46172C12.7393 4.46172 13.5383 5.26076 13.5383 6.24641Z" fill="#777E90"/>
<path d="M10.5458 16.7473C10.72 16.573 10.72 16.2905 10.5458 16.1163L1.88372 7.4542C1.70947 7.27996 1.42697 7.27996 1.25273 7.4542L0.784086 7.92285C-0.26136 8.96829 -0.261363 10.6633 0.784084 11.7087L6.29126 17.2159C7.33671 18.2614 9.03171 18.2614 10.0772 17.2159L10.5458 16.7473Z" fill="#777E90"/>
</svg>
