<svg width="20" height="20" viewBox="0 0 20 20" fill="none" xmlns="http://www.w3.org/2000/svg">
<path fill-rule="evenodd" clip-rule="evenodd" d="M19.9477 12.7181L18.9566 15.1051C18.8216 15.4325 18.4492 15.5862 18.1255 15.4525L16.9982 14.9863C16.4833 14.7739 15.7397 14.9239 15.3485 15.315C14.9198 15.7449 14.7736 16.4822 14.986 16.9984L15.4535 18.1231C15.5884 18.448 15.441 18.818 15.1085 18.9554L12.7214 19.9477C12.3965 20.0827 12.024 19.9277 11.8903 19.6028L11.4229 18.4743C11.2079 17.9594 10.573 17.5408 10.0231 17.5408C9.41572 17.5408 8.78958 17.9582 8.57337 18.4755L8.1072 19.6053C7.97347 19.9302 7.60728 20.0877 7.27484 19.9502L4.88774 18.9629C4.56279 18.8255 4.40657 18.4543 4.54155 18.1306L5.00772 17.0059C5.22018 16.4897 5.07021 15.7462 4.67778 15.3563C4.2491 14.9264 3.51172 14.7789 2.99556 14.9938L1.86825 15.46C1.54331 15.595 1.17462 15.4475 1.03714 15.1138L0.049808 12.7219C-0.0851692 12.3969 0.0698046 12.022 0.39475 11.8883L1.52331 11.4209C2.03822 11.206 2.4569 10.5749 2.4569 10.025C2.4569 9.41889 2.03947 8.79528 1.52206 8.58033L0.39475 8.11169C0.0698046 7.97797 -0.0876687 7.6118 0.049808 7.27938L1.04089 4.89243C1.17587 4.56501 1.5483 4.41005 1.872 4.54251L2.99681 5.00866C3.51297 5.22111 4.2566 5.07114 4.64653 4.67873C5.07646 4.25008 5.22393 3.51275 5.00897 2.99662L4.54405 1.87188C4.40907 1.54696 4.55655 1.17704 4.88899 1.03958L7.27609 0.0523043C7.60103 -0.0826644 7.97347 0.0722997 8.1072 0.397224L8.57462 1.52571C8.78958 2.04059 9.42447 2.45925 9.97438 2.45925C10.5818 2.45925 11.2079 2.04184 11.4241 1.52446L11.8903 0.394725C12.024 0.0698003 12.3902 -0.0876633 12.7227 0.0498049L15.1098 1.03708C15.4347 1.17454 15.5909 1.54571 15.456 1.86938L14.9935 2.98787C14.7786 3.509 14.9285 4.25508 15.3185 4.64499C15.7484 5.07489 16.4833 5.22361 17.0094 5.00491L18.1293 4.54251C18.4542 4.40505 18.8229 4.55501 18.9604 4.88743L19.9477 7.27938C20.0827 7.6043 19.9277 7.97922 19.6028 8.11294L18.4742 8.58033C17.9593 8.79528 17.5406 9.42638 17.5406 9.97626C17.5406 10.5824 17.958 11.206 18.4754 11.4209L19.6053 11.8871C19.9302 12.0208 20.0877 12.3869 19.9502 12.7194L19.9477 12.7181ZM9.99938 4.99991C7.23734 4.99991 5.00022 7.23689 5.00022 9.99875C5.00022 12.7606 7.23734 14.9976 9.99938 14.9976C12.7614 14.9976 14.9985 12.7606 14.9985 9.99875C14.9985 8.67406 14.4736 7.40185 13.5338 6.46457C12.5964 5.52729 11.3242 4.99991 9.99938 4.99991ZM9.99938 12.4982C8.61836 12.4982 7.4998 11.3797 7.4998 9.99875C7.4998 8.61782 8.61836 7.49933 9.99938 7.49933C11.3804 7.49933 12.499 8.61782 12.499 9.99875C12.499 10.6611 12.2365 11.2984 11.7666 11.7658C11.2992 12.2357 10.6618 12.4982 9.99938 12.4982Z" fill="#777E90"/>
</svg>
