<svg width="18" height="18" viewBox="0 0 18 18" fill="none" xmlns="http://www.w3.org/2000/svg">
<path fill-rule="evenodd" clip-rule="evenodd" d="M15.75 13.5H13.5V15.75C13.5 16.9931 12.4931 18 11.25 18H2.25C1.00688 18 0 16.9931 0 15.75V6.75C0 5.50688 1.00688 4.5 2.25 4.5H4.5V2.25C4.5 1.00688 5.50688 0 6.75 0H15.75C16.9931 0 18 1.00688 18 2.25V11.25C18 12.4931 16.9931 13.5 15.75 13.5ZM2.25 15.75H11.25V6.75H2.25V15.75ZM15.75 2.25H6.75V4.5H11.25C12.4931 4.5 13.5 5.50688 13.5 6.75V11.25H15.75V2.25Z" fill="#6EA5DE"/>
</svg>
